<?xml version="1.0" encoding="iso-8859-1"?>
<!-- Generator: Adobe Illustrator 19.0.0, SVG Export Plug-In . SVG Version: 6.00 Build 0)  -->
<svg version="1.1" id="Layer_1" xmlns="http://www.w3.org/2000/svg" xmlns:xlink="http://www.w3.org/1999/xlink" x="0px"
    y="0px" viewBox="0 0 512 512" style="enable-background:new 0 0 512 512;" xml:space="preserve">
    <path style="fill:#4FC0E8;" d="M512,256.006C512,397.402,397.394,512.004,256.004,512C114.606,512.004,0,397.402,0,256.006
	C-0.007,114.61,114.606,0,256.004,0C397.394,0,512,114.614,512,256.006z" />
    <path style="fill:#3DAED9;" d="M503.051,323.122c-0.064-0.054-0.111-0.125-0.178-0.178c-0.34-0.429-0.708-0.796-1.137-1.137
	c-0.34-0.43-230.47-230.56-230.9-230.9c-0.34-0.43-0.707-0.797-1.137-1.137c-0.34-0.429-0.707-0.797-1.137-1.137
	c-1.297-1.638-3.217-2.754-5.472-2.754c-3.918,0-7.089,3.17-7.089,7.089v138.833l-27.546-27.546h-0.001l-10.237-10.237l-0.002-0.001
	l-6.822-6.822c-2.769-2.769-7.254-2.769-10.023,0s-2.769,7.254,0,10.023l6.822,6.822l0.001,0.002l10.237,10.237v0.001l98.923,98.923
	c-2.701,1.001-4.645,3.545-4.645,6.595v14.176c0,3.309-0.825,6.405-2.179,9.2c-0.075-0.065-0.169-0.105-0.246-0.166
	c-0.34-0.43-0.707-0.797-1.137-1.137c-0.339-0.431-111.039-111.13-111.469-111.471c-1.298-1.638-3.217-2.754-5.471-2.754h-49.619
	c-2.519,0-4.853,1.335-6.126,3.517l-49.619,85.061c-0.078,0.134-0.076,0.286-0.144,0.422c-0.211,0.42-0.326,0.868-0.452,1.332
	c-0.125,0.465-0.251,0.91-0.278,1.381c-0.01,0.153-0.087,0.282-0.087,0.436v99.238c0,2.255,1.117,4.173,2.754,5.471
	c0.34,0.43,0.707,0.797,1.137,1.137c0.34,0.43,64.404,64.494,64.834,64.834c0.338,0.426,0.703,0.79,1.127,1.129
	c30.796,13.121,64.683,20.396,100.273,20.395C374.162,512.003,473.558,431.945,503.051,323.122z" />
    <g>
        <path style="fill:#F4F6F9;" d="M426.035,319.361c-0.028-0.471-0.154-0.917-0.278-1.382c-0.126-0.464-0.24-0.912-0.452-1.332
		c-0.068-0.137-0.065-0.288-0.143-0.421l-49.619-85.061c-1.274-2.18-3.606-3.517-6.126-3.517h-35.443
		c-3.918,0-7.088,3.17-7.088,7.088c0,3.918,3.17,7.088,7.088,7.088h31.372l41.345,70.884h-86.894c-3.918,0-7.088,3.17-7.088,7.088
		v14.178c0,11.727-9.539,21.265-21.265,21.265h-63.796c-11.727,0-21.265-9.539-21.265-21.265v-14.177
		c0-3.918-3.17-7.088-7.088-7.088H105.31l41.345-70.884h45.549c3.918,0,7.088-3.17,7.088-7.088c0-3.918-3.17-7.088-7.088-7.088
		h-49.619c-2.519,0-4.852,1.337-6.126,3.517l-49.619,85.059c-0.078,0.134-0.076,0.286-0.144,0.422
		c-0.212,0.42-0.326,0.868-0.452,1.331c-0.125,0.465-0.251,0.91-0.278,1.381c-0.01,0.153-0.087,0.282-0.087,0.436v99.238
		c0,3.918,3.17,7.088,7.088,7.088h326.069c3.918,0,7.088-3.17,7.088-7.088v-99.238C426.123,319.642,426.045,319.513,426.035,319.361
		z M411.947,411.947H100.053v-85.061h92.15v7.088c0,19.541,15.901,35.442,35.442,35.442h63.796
		c19.541,0,35.442-15.901,35.442-35.442v-7.088h85.062V411.947z" />
        <path style="fill:#F4F6F9;" d="M258.067,253.915c0.655,0.658,1.441,1.18,2.314,1.54c0.866,0.358,1.786,0.546,2.707,0.546
		s1.841-0.188,2.707-0.546c0.873-0.361,1.659-0.882,2.314-1.54l56.699-56.699c2.769-2.769,2.769-7.254,0-10.023
		c-2.769-2.769-7.254-2.769-10.023,0l-44.608,44.608V92.965c0-3.918-3.17-7.088-7.088-7.088S256,89.047,256,92.965v138.834
		l-44.608-44.608c-2.769-2.769-7.254-2.769-10.023,0c-2.769,2.769-2.769,7.254,0,10.023L258.067,253.915z" />
    </g>
</svg>