<?xml version="1.0" encoding="iso-8859-1"?>
<!-- Generator: Adobe Illustrator 16.0.0, SVG Export Plug-In . SVG Version: 6.00 Build 0)  -->
<!DOCTYPE svg PUBLIC "-//W3C//DTD SVG 1.1//EN" "http://www.w3.org/Graphics/SVG/1.1/DTD/svg11.dtd">
<svg version="1.1" id="Capa_1" xmlns="http://www.w3.org/2000/svg" xmlns:xlink="http://www.w3.org/1999/xlink" x="0px" y="0px"
	 viewBox="0 0 405.24 405.24" style="enable-background:new 0 0 405.24 405.24;" 
	 xml:space="preserve">
<g>
	<g>
		<g>
			<path d="M249.037,330.626H28.283V86.909h335.623v181.629l28.283,28.283V26.195c0-12.996-10.573-23.569-23.568-23.569H23.568
				C10.573,2.626,0,13.199,0,26.195v309.146c0,12.995,10.573,23.568,23.568,23.568h238.911
				C249.37,340.274,249.037,330.626,249.037,330.626z M338.026,42.202c0-4.806,3.896-8.702,8.702-8.702h8.701
				c4.807,0,8.702,3.896,8.702,8.702v9.863c0,4.806-3.896,8.702-8.702,8.702h-8.701c-4.808,0-8.702-3.896-8.702-8.702V42.202z
				 M297.561,42.202c0-4.806,3.896-8.702,8.701-8.702h8.703c4.808,0,8.702,3.896,8.702,8.702v9.863c0,4.806-3.896,8.702-8.702,8.702
				h-8.703c-4.806,0-8.701-3.896-8.701-8.702V42.202z M257.095,42.202c0-4.806,3.897-8.702,8.702-8.702h8.702
				c4.807,0,8.703,3.896,8.703,8.702v9.863c0,4.806-3.896,8.702-8.703,8.702h-8.702c-4.805,0-8.702-3.896-8.702-8.702V42.202z"/>
			<path d="M392.606,322.19l-41.165-41.166c-9.292-9.291-21.797-13.446-33.972-12.487c0.958-12.175-3.196-24.679-12.487-33.972
				l-41.165-41.165c-16.848-16.846-44.256-16.845-61.103,0l-6.689,6.688c-16.846,16.845-16.846,44.255,0,61.102l41.166,41.164
				c9.293,9.293,21.797,13.446,33.971,12.489c-0.958,12.174,3.197,24.679,12.489,33.972l41.165,41.164
				c16.845,16.846,44.255,16.846,61.101,0l6.688-6.688C409.452,366.445,409.452,339.035,392.606,322.19z M262.267,274.187
				l17.062,17.063c-8.687,5.173-20.118,4.027-27.586-3.439l-41.166-41.166c-8.824-8.822-8.824-23.182,0-32.006l6.688-6.688
				c8.823-8.824,23.182-8.824,32.004,0l41.166,41.165c7.47,7.469,8.613,18.898,3.439,27.587l-17.062-17.063
				c-4.019-4.018-10.53-4.018-14.548,0C258.248,263.656,258.248,270.169,262.267,274.187z M378.058,368.743l-6.688,6.688
				c-8.824,8.824-23.181,8.824-32.005,0.001L298.2,334.267c-7.468-7.469-8.614-18.898-3.44-27.586l17.063,17.062
				c4.018,4.019,10.529,4.019,14.548,0c4.017-4.018,4.017-10.53,0-14.548l-17.063-17.063c8.688-5.174,20.118-4.027,27.589,3.44
				l41.164,41.165C386.882,345.562,386.882,359.919,378.058,368.743z"/>
		</g>
	</g>
</g>
<g>
</g>
<g>
</g>
<g>
</g>
<g>
</g>
<g>
</g>
<g>
</g>
<g>
</g>
<g>
</g>
<g>
</g>
<g>
</g>
<g>
</g>
<g>
</g>
<g>
</g>
<g>
</g>
<g>
</g>
</svg>
